<?xml version="1.0" encoding="UTF-8" standalone="no"?>
<svg
   width="24"
   height="24"
   viewBox="0 0 48 48"
   fill="none"
   version="1.1"
   id="svg4"
   sodipodi:docname="message2.svg"
   inkscape:version="1.4.4 (dcaf3e7, 2026-05-05)"
   xmlns:inkscape="http://www.inkscape.org/namespaces/inkscape"
   xmlns:sodipodi="http://sodipodi.sourceforge.net/DTD/sodipodi-0.dtd"
   xmlns="http://www.w3.org/2000/svg"
   xmlns:svg="http://www.w3.org/2000/svg">
  <defs
     id="defs4" />
  <sodipodi:namedview
     id="namedview4"
     pagecolor="#ffffff"
     bordercolor="#000000"
     borderopacity="0.25"
     inkscape:showpageshadow="2"
     inkscape:pageopacity="0.0"
     inkscape:pagecheckerboard="0"
     inkscape:deskcolor="#d1d1d1"
     inkscape:zoom="33.625"
     inkscape:cx="12"
     inkscape:cy="12"
     inkscape:window-width="1904"
     inkscape:window-height="993"
     inkscape:window-x="208"
     inkscape:window-y="116"
     inkscape:window-maximized="0"
     inkscape:current-layer="svg4" />
  <path
     d="M4 6H44V36H29L24 41L19 36H4V6Z"
     fill="none"
     stroke="#333"
     stroke-width="4"
     stroke-linecap="round"
     stroke-linejoin="round"
     id="path1" />
  <path
     fill="#333333"
     d="m 21.106601,13.799257 c 1.692441,4.702675 4.593769,7.389917 9.671093,8.957476 -0.241778,0.447874 -0.483555,0.447874 -0.96711,0.67181 -4.835546,1.567559 -7.495096,4.254801 -9.187537,8.733539 -1.692442,-4.478738 -4.351991,-7.16598 -9.187537,-8.733539 -0.483555,-0.223936 -0.725331,-0.223936 -0.967108,-0.67181 5.077322,-1.567559 7.978649,-4.254801 9.67109,-8.957476 z"
     id="path2-8"
     style="stroke-width:2.32686" />
  <path
     fill="#333333"
     d="m 36.054275,9.7836431 c 0.747831,2.1868649 2.093928,3.4169759 4.486989,4.1003719 -2.393061,0.683395 -3.739158,1.913507 -4.486989,4.100371 -0.747832,-2.186864 -2.093928,-3.416976 -4.486989,-4.100371 2.393061,-0.683396 3.739157,-1.913507 4.486989,-4.1003719 z"
     id="path3"
     style="stroke-width:2.85955" />
</svg>
