<?xml version="1.0" encoding="UTF-8" standalone="no"?>
<!-- Created with Inkscape (http://www.inkscape.org/) -->

<svg
   width="8.0756235mm"
   height="6.7319436mm"
   viewBox="0 0 8.0756235 6.7319436"
   version="1.1"
   id="svg1"
   inkscape:version="1.4.4 (dcaf3e7, 2026-05-05)"
   sodipodi:docname="wechat.svg"
   xmlns:inkscape="http://www.inkscape.org/namespaces/inkscape"
   xmlns:sodipodi="http://sodipodi.sourceforge.net/DTD/sodipodi-0.dtd"
   xmlns="http://www.w3.org/2000/svg"
   xmlns:svg="http://www.w3.org/2000/svg">
  <sodipodi:namedview
     id="namedview1"
     pagecolor="#ffffff"
     bordercolor="#000000"
     borderopacity="0.25"
     inkscape:showpageshadow="2"
     inkscape:pageopacity="0.0"
     inkscape:pagecheckerboard="0"
     inkscape:deskcolor="#d1d1d1"
     inkscape:document-units="mm"
     inkscape:zoom="16.267265"
     inkscape:cx="28.80017"
     inkscape:cy="11.526215"
     inkscape:window-width="1920"
     inkscape:window-height="1009"
     inkscape:window-x="-8"
     inkscape:window-y="-8"
     inkscape:window-maximized="1"
     inkscape:current-layer="layer1" />
  <defs
     id="defs1" />
  <g
     inkscape:label="图层 1"
     inkscape:groupmode="layer"
     id="layer1"
     transform="translate(-101.06998,-145.25563)">
    <path
       d="m 104.44507,145.25624 c 1.86081,0 3.37449,1.31075 3.37449,2.93265 0,0.0593 -0.003,0.11774 -0.006,0.17647 l -0.003,0.036 -0.027,-0.0238 a 0.67574582,0.67574582 0 0 0 -0.66992,-0.13335 l -0.0241,0.008 v -0.11933 c -0.0423,-1.20597 -1.20994,-2.18016 -2.64583,-2.18016 -0.29898,0 -0.58658,0.0423 -0.85514,0.12012 l -0.11377,0.0352 c -0.98319,0.3294 -1.67719,1.14353 -1.67719,2.09074 0,0.66675 0.34396,1.26682 0.89032,1.67957 l 0.0249,0.0214 a 0.238125,0.238125 0 0 1 0.0696,0.17648 l -0.003,0.0328 -0.0929,0.52811 a 0.04550833,0.04550833 0 0 0 0.0672,0.0471 l 0.60669,-0.35004 0.0225,-0.0111 c 0.0529,-0.0233 0.11218,-0.0265 0.16748,-0.01 l 0.10583,0.0304 a 3.0506458,3.0506458 0 0 0 0.78846,0.10187 3.0665208,3.0665208 0 0 0 0.90937,-0.13706 l 0.0193,-0.006 0.003,0.0201 a 0.67997916,0.67997916 0 0 0 0.43127,0.51752 l 0.0439,0.0169 -0.0442,0.0167 a 3.7967708,3.7967708 0 0 1 -1.36287,0.24924 3.8311666,3.8311666 0 0 1 -1.0033,-0.13229 l -1.00277,0.48895 a 0.254,0.254 0 0 1 -0.36354,-0.2548 l 0.0913,-0.871 c -0.67283,-0.53711 -1.09617,-1.30784 -1.09617,-2.1643 0,-1.62321 1.51289,-2.9337 3.3745,-2.9337 z"
       fill="#0082ef"
       id="path1"
       style="stroke-width:0.264583" />
    <path
       fill-rule="evenodd"
       clip-rule="evenodd"
       d="m 107.68277,148.5384 c 0.0833,0.0833 0.13044,0.18891 0.14103,0.29898 h 7.9e-4 a 1.2147021,1.2147021 0 0 0 0.37571,0.7403 l 0.006,0.006 a 0.12356042,0.12356042 0 0 1 -0.002,0.17145 0.12144375,0.12144375 0 0 1 -0.17145,0.003 l -0.006,-0.007 c -0.008,-0.01 -0.0169,-0.0185 -0.0249,-0.0273 a 1.2247562,1.2247562 0 0 0 -0.71068,-0.34925 0.49662291,0.49662291 0 0 1 -0.30374,-0.14102 0.49027291,0.49027291 0 0 1 0,-0.6948 0.49027291,0.49027291 0 0 1 0.6948,0 z"
       fill="#2dbc00"
       id="path2"
       style="stroke-width:0.264583" />
    <path
       fill-rule="evenodd"
       clip-rule="evenodd"
       d="m 109.00172,150.5241 a 0.48577499,0.48577499 0 0 1 -0.29898,0.14102 h -7.9e-4 a 1.2234333,1.2234333 0 0 0 -0.71464,0.35084 0.34157708,0.34157708 0 0 0 -0.0241,0.0257 l -0.007,0.006 a 0.12356042,0.12356042 0 0 1 -0.17145,-0.002 0.12144375,0.12144375 0 0 1 -0.002,-0.17145 l 0.006,-0.006 c 0.01,-0.008 0.0185,-0.0167 0.0273,-0.0249 a 1.2250208,1.2250208 0 0 0 0.34925,-0.71067 0.49662291,0.49662291 0 0 1 0.14102,-0.30374 0.49053749,0.49053749 0 0 1 0.69506,0 0.49053749,0.49053749 0 0 1 0,0.6948 z"
       fill="#0082ef"
       id="path3"
       style="stroke-width:0.264583" />
    <path
       fill-rule="evenodd"
       clip-rule="evenodd"
       d="m 107.01682,151.84305 a 0.48577499,0.48577499 0 0 1 -0.14103,-0.29898 h -7.9e-4 a 1.2149667,1.2149667 0 0 0 -0.35031,-0.71623 0.26299583,0.26299583 0 0 0 -0.0257,-0.0241 l -0.006,-0.006 a 0.12356042,0.12356042 0 0 1 0.003,-0.17171 0.12144375,0.12144375 0 0 1 0.17119,-0.002 l 0.007,0.007 c 0.008,0.01 0.0167,0.0185 0.0246,0.027 a 1.2244917,1.2244917 0 0 0 0.71093,0.34951 0.49662291,0.49662291 0 0 1 0.30375,0.14103 0.49027291,0.49027291 0 0 1 0,0.69479 0.49053749,0.49053749 0 0 1 -0.6948,0 z"
       fill="#fb6500"
       id="path4"
       style="stroke-width:0.264583" />
    <path
       fill-rule="evenodd"
       clip-rule="evenodd"
       d="m 105.69707,149.85814 a 0.48577499,0.48577499 0 0 1 0.29898,-0.14102 h 5.3e-4 a 1.2236979,1.2236979 0 0 0 0.71491,-0.3511 c 0.009,-0.009 0.0177,-0.0175 0.0238,-0.0257 l 0.007,-0.006 a 0.12356042,0.12356042 0 0 1 0.17145,0.003 c 0.0482,0.0479 0.049,0.12171 0.003,0.17118 l -0.007,0.007 c -0.01,0.008 -0.0185,0.0167 -0.0273,0.0246 a 1.2250208,1.2250208 0 0 0 -0.34925,0.71093 0.49662291,0.49662291 0 0 1 -0.14102,0.30374 0.49053749,0.49053749 0 0 1 -0.6948,0 0.49027291,0.49027291 0 0 1 0,-0.69479 z"
       fill="#ffcc00"
       id="path5"
       style="stroke-width:0.264583" />
  </g>
</svg>
